<svg width="26" height="26" viewBox="0 0 26 26" fill="none" xmlns="http://www.w3.org/2000/svg">
<path d="M12.617 2.41391C15.8388 2.44048 18.3448 5.08511 18.2551 8.30384L17.935 19.8006C17.8674 22.2295 15.8349 24.196 13.4015 24.1864C10.9917 24.177 9.10022 22.2303 9.16734 19.8218L9.45117 9.80496C9.49677 8.16868 10.8842 6.84863 12.524 6.8842C14.1038 6.91845 15.3177 8.22086 15.2737 9.80046L15.0491 17.6735C15.0395 18.0121 14.7564 18.2915 14.417 18.2977L13.1881 18.3198C12.8486 18.3259 12.5812 18.0564 12.5909 17.7178L12.8154 9.84551C12.8229 9.57519 12.6128 9.34143 12.3564 9.33584C12.1121 9.33055 11.9162 9.51609 11.9094 9.75964L11.6256 19.7765C11.5956 20.8515 12.4479 21.73 13.5254 21.7342C14.5789 21.7383 15.4473 20.8986 15.4766 19.8465L15.7968 8.34973C15.8498 6.44437 14.3631 4.8816 12.4824 4.86609C10.6071 4.8506 9.05483 6.35008 9.00278 8.21754L8.74019 17.648C8.73078 17.9866 8.44792 18.2661 8.10846 18.2725L6.87943 18.2955C6.53997 18.3018 6.2724 18.0325 6.28184 17.6939L6.54446 8.26348C6.63543 4.99822 9.37335 2.3871 12.617 2.41391Z" fill="black" fill-opacity="0.38"/>
</svg>
