<?xml version="1.0" standalone="no"?>
<!DOCTYPE svg PUBLIC "-//W3C//DTD SVG 20010904//EN"
 "http://www.w3.org/TR/2001/REC-SVG-20010904/DTD/svg10.dtd">
<svg version="1.0" xmlns="http://www.w3.org/2000/svg"
 width="286.000000pt" height="250.000000pt" viewBox="0 0 286.000000 250.000000"
 preserveAspectRatio="xMidYMid meet">

<g transform="translate(0.000000,250.000000) scale(0.100000,-0.100000)"
fill="#000000" stroke="none">
<path d="M1582 2167 c-12 -13 -22 -28 -22 -35 0 -8 -78 -12 -276 -14 l-276 -3
-24 -28 c-14 -16 -24 -41 -24 -58 l0 -29 300 0 300 0 0 -30 c0 -41 31 -70 75
-70 34 0 35 -1 35 -37 l0 -37 38 37 38 37 196 0 197 0 21 27 c20 25 21 38 18
126 -5 145 13 137 -312 137 -261 0 -263 0 -284 -23z m528 -52 c0 -13 -33 -15
-240 -15 -207 0 -240 2 -240 15 0 13 33 15 240 15 207 0 240 -2 240 -15z
m-377 -70 c-2 -5 -25 -11 -53 -13 -40 -2 -50 0 -50 13 0 13 10 15 53 13 28 -2
51 -7 50 -13z m377 0 c0 -13 -24 -15 -160 -15 -136 0 -160 2 -160 15 0 13 24
15 160 15 136 0 160 -2 160 -15z m-117 -70 c-2 -6 -74 -11 -183 -13 -157 -2
-180 0 -180 13 0 13 23 15 183 13 115 -2 181 -7 180 -13z"/>
<path d="M1501 1813 c-16 -13 -25 -38 -33 -85 -7 -37 -8 -71 -4 -75 13 -14 35
28 30 57 -6 26 -4 27 41 33 25 4 53 14 61 22 28 27 37 17 32 -35 -6 -61 -28
-88 -76 -92 -57 -5 -53 -31 9 -56 28 -12 57 -22 64 -22 15 0 29 94 27 180 -2
68 -23 90 -87 90 -26 0 -51 -7 -64 -17z"/>
<path d="M1215 1366 c-16 -19 -57 -81 -89 -140 -33 -58 -90 -147 -128 -197
l-69 -92 3 -68 3 -68 55 38 c40 28 86 79 170 189 131 173 133 173 105 -6 -25
-167 -42 -225 -118 -401 -57 -132 -67 -165 -56 -172 12 -8 68 -5 74 4 2 1 44
65 94 142 124 190 144 258 156 530 3 77 8 149 10 160 3 17 -11 30 -74 68 -44
26 -85 47 -93 47 -7 0 -26 -15 -43 -34z"/>
<path d="M1056 374 c-12 -31 -5 -34 69 -34 41 0 75 3 75 8 -1 12 -75 42 -107
42 -19 0 -33 -6 -37 -16z"/>
<path d="M960 291 c0 -28 7 -49 24 -68 l24 -28 407 0 407 0 24 28 c17 19 24
40 24 68 l0 39 -455 0 -455 0 0 -39z"/>
</g>
</svg>
