<svg width="56" height="56" viewBox="0 0 56 56" fill="none" xmlns="http://www.w3.org/2000/svg">
<rect width="56" height="56" rx="28" fill="#56CCF2"/>
<path fill-rule="evenodd" clip-rule="evenodd" d="M28 24C29.1 24 30 23.1 30 22C30 20.9 29.1 20 28 20C26.9 20 26 20.9 26 22C26 23.1 26.9 24 28 24ZM28 26C26.9 26 26 26.9 26 28C26 29.1 26.9 30 28 30C29.1 30 30 29.1 30 28C30 26.9 29.1 26 28 26ZM28 32C26.9 32 26 32.9 26 34C26 35.1 26.9 36 28 36C29.1 36 30 35.1 30 34C30 32.9 29.1 32 28 32Z" fill="#FEFEFE"/>
</svg>
