<svg width="21" height="19" viewBox="0 0 21 19" fill="none" xmlns="http://www.w3.org/2000/svg">
<path d="M20.2245 8.09597L1.56593 0.0959727C1.37807 0.0149888 1.16881 -0.0156802 0.962546 0.00754019C0.756283 0.0307605 0.56151 0.106914 0.40093 0.227125C0.240349 0.347335 0.120573 0.506652 0.0555621 0.686507C-0.00944889 0.866363 -0.0170176 1.05935 0.0337383 1.24297L2.16191 9.00097L0.0337383 16.759C-0.0174925 16.9427 -0.0102548 17.1359 0.0546049 17.3159C0.119465 17.496 0.239264 17.6555 0.399991 17.7759C0.560717 17.8962 0.755724 17.9723 0.962201 17.9954C1.16868 18.0184 1.37809 17.9874 1.56593 17.906L20.2245 9.90597C20.413 9.82522 20.5725 9.69723 20.6841 9.53697C20.7958 9.37671 20.8551 9.1908 20.8551 9.00097C20.8551 8.81114 20.7958 8.62523 20.6841 8.46497C20.5725 8.30472 20.413 8.17673 20.2245 8.09597V8.09597ZM2.72386 15.198L3.64471 11.841L9.87886 9.00097L3.64471 6.16097L2.72386 2.80397L17.1787 9.00097L2.72386 15.198Z" fill="#009DDC"/>
</svg>
